<svg width="48" height="47" viewBox="0 0 48 47" fill="none" xmlns="http://www.w3.org/2000/svg">
<g clip-path="url(#clip0_33_90)">
<g clip-path="url(#clip1_33_90)">
<g clip-path="url(#clip2_33_90)">
<mask id="mask0_33_90" style="mask-type:luminance" maskUnits="userSpaceOnUse" x="0" y="-1" width="48" height="48">
<path d="M48 -0.00552368H0V46.7355H48V-0.00552368Z" fill="white"/>
</mask>
<g mask="url(#mask0_33_90)">
<path d="M44.3169 22.2339V3.13116C44.3056 2.28916 43.9609 1.48599 43.3583 0.897746C42.7558 0.309503 41.9446 -0.0158099 41.1025 -0.00687006H5.46046C4.61843 -0.0158099 3.8072 0.309503 3.20464 0.897746C2.60209 1.48599 2.25739 2.28916 2.24609 3.13116V37.829C2.2581 38.6708 2.60302 39.4735 3.20542 40.0616C3.80782 40.6497 4.61864 40.9753 5.46046 40.967H11.1512C11.7338 41.472 12.3459 41.9528 12.9807 42.4028C16.9702 45.2303 21.7413 46.7452 26.6311 46.7368C27.871 46.7366 29.109 46.6417 30.3344 46.4529C34.3628 45.8484 38.074 43.9157 40.8789 40.9617H41.0958C41.9376 40.9699 42.7485 40.6444 43.3509 40.0563C43.9533 39.4682 44.2982 38.6654 44.3102 37.8237V35.7879C45.646 32.7326 46.0674 29.3556 45.5236 26.0657C45.3082 24.737 44.9017 23.4463 44.3169 22.2339ZM7.00738 32.8025L8.46993 32.8789L7.65693 34.0843C7.42478 33.6655 7.20828 33.2383 7.00738 32.8025ZM14 41.0983C13.9898 41.0905 13.9785 41.0842 13.9665 41.0795C13.4549 40.7126 12.966 40.3309 12.4933 39.9304L14.3482 39.2942L14 41.0983ZM21.1801 44.4064L22.4042 43.0242L23.0391 44.8015C22.4123 44.6984 21.7922 44.5645 21.1801 44.4078V44.4064ZM30.8795 44.693L31.5973 42.7336L32.8442 44.1667C32.1999 44.38 31.544 44.5548 30.8795 44.693ZM40.5226 38.8469L39.2047 40.1956L38.5846 38.1384L40.69 38.6326C40.6391 38.7063 40.5869 38.7799 40.5279 38.8482L40.5226 38.8469ZM41.1199 38.0661L37.6136 37.237L38.6851 40.7889C37.1679 42.1442 35.4134 43.2076 33.5099 43.9256L31.3496 41.4452L30.1174 44.8229C30.1027 44.8229 30.0879 44.823 30.0732 44.831C27.9917 45.1599 25.8733 45.1829 23.7851 44.8993L22.6507 41.7358L20.4662 44.2042C18.3884 43.5961 16.4137 42.6796 14.608 41.4854L15.2201 38.2964L11.9147 39.4362C10.3987 38.0635 9.09031 36.4777 8.03063 34.7285L9.66191 32.2922L6.69797 32.1329C6.04556 30.5957 5.5793 28.986 5.30911 27.3381C4.56383 22.6804 5.05374 17.9087 6.72993 13.4997C8.40612 9.09065 11.2099 5.19861 14.8611 2.21239L16.6451 0.903869H31.9054L27.2794 2.21239C22.1484 3.60555 17.7094 6.83766 14.808 11.2929C11.9066 15.7481 10.7456 21.115 11.5464 26.3711C11.8662 28.3201 12.5734 30.1852 13.6263 31.8562C14.6792 33.5272 16.0564 34.9702 17.6764 36.0999C20.2984 37.96 23.4351 38.9563 26.6499 38.95C27.4637 38.9519 28.2764 38.8905 29.0807 38.7665C31.4045 38.3637 33.5272 37.196 35.1115 35.4489C36.6957 33.7018 37.6509 31.4754 37.8252 29.1234C37.8459 28.1512 37.6651 27.1852 37.2942 26.2863C36.9234 25.3873 36.3704 24.5749 35.6702 23.9C33.5224 21.9647 30.7163 20.9231 27.8258 20.9884C26.5015 20.9821 25.1851 21.192 23.9284 21.6098C23.6663 21.701 23.3915 21.7503 23.1141 21.7558C23.0044 21.7734 22.8924 21.769 22.7845 21.7428C22.6766 21.7166 22.575 21.6691 22.4857 21.6031C22.3964 21.5371 22.3211 21.454 22.2644 21.3585C22.2076 21.2631 22.1705 21.1573 22.1551 21.0473C21.9422 20.1098 23.1583 18.9245 23.5627 18.5347C23.6739 18.4262 23.7784 18.3204 23.8681 18.2227C25.3378 16.9637 27.1304 16.1412 29.0433 15.848C32.4283 15.3199 35.8861 16.1282 38.6864 18.1021C40.0576 19.057 41.2231 20.2777 42.1135 21.6918C43.0039 23.1058 43.6011 24.6843 43.8696 26.3336C44.2056 28.3738 44.1361 30.4603 43.6653 32.4736C43.1944 34.487 42.3313 36.3878 41.1253 38.0674L41.1199 38.0661Z" fill="#808080"/>
<path d="M28.3901 16.4789C28.0251 16.4884 27.6709 16.6053 27.372 16.8151C27.0731 17.0248 26.8427 17.3181 26.7096 17.6582C26.5766 17.9983 26.5468 18.37 26.624 18.727C26.7012 19.0839 26.8819 19.4101 27.1436 19.6648C27.4053 19.9195 27.7363 20.0914 28.0952 20.1589C28.4541 20.2264 28.8249 20.1865 29.1613 20.0443C29.4976 19.9021 29.7845 19.6638 29.9861 19.3593C30.1877 19.0549 30.295 18.6977 30.2946 18.3325C30.2918 18.0856 30.2403 17.8416 30.143 17.6147C30.0457 17.3877 29.9044 17.1822 29.7275 17.01C29.5505 16.8378 29.3413 16.7022 29.1118 16.611C28.8823 16.5199 28.637 16.475 28.3901 16.4789ZM28.3901 19.5365C28.1529 19.5313 27.9226 19.4561 27.7279 19.3205C27.5332 19.1849 27.3829 18.9948 27.2958 18.7742C27.2086 18.5535 27.1885 18.312 27.238 18.08C27.2875 17.848 27.4044 17.6357 27.574 17.4698C27.7436 17.3039 27.9584 17.1917 28.1914 17.1473C28.4245 17.103 28.6655 17.1283 28.8842 17.2203C29.1029 17.3123 29.2895 17.4667 29.4208 17.6643C29.5521 17.8619 29.6222 18.0939 29.6223 18.3312C29.6206 18.4912 29.5873 18.6494 29.5244 18.7966C29.4615 18.9438 29.3703 19.0771 29.2559 19.1891C29.1415 19.301 29.0061 19.3893 28.8576 19.4489C28.709 19.5085 28.5502 19.5383 28.3901 19.5365Z" fill="#808080"/>
</g>
</g>
</g>
</g>
<defs>
<clipPath id="clip0_33_90">
<rect width="48" height="46.73" fill="white"/>
</clipPath>
<clipPath id="clip1_33_90">
<rect width="48" height="46.73" fill="white"/>
</clipPath>
<clipPath id="clip2_33_90">
<rect width="48" height="46.741" fill="white" transform="translate(0 -0.00552368)"/>
</clipPath>
</defs>
</svg>
