<svg width="48" height="42" viewBox="0 0 48 42" fill="none" xmlns="http://www.w3.org/2000/svg">
<g clip-path="url(#clip0_33_82)">
<g clip-path="url(#clip1_33_82)">
<g clip-path="url(#clip2_33_82)">
<path d="M44.6491 21.8737C44.6391 21.866 44.6301 21.857 44.6225 21.847C43.7064 20.8778 42.2871 20.4475 40.02 20.4475C39.018 20.4545 38.017 20.512 37.0208 20.6198L37.037 2.5559C37.0333 1.87373 36.7592 1.22086 36.2747 0.74055C35.7903 0.260236 35.1351 -0.00830197 34.4529 -0.00614781H2.58171C1.89965 -0.00860685 1.24453 0.259906 0.760396 0.740352C0.276263 1.2208 0.00275572 1.87384 0 2.5559V34.1414C0.00106079 34.4792 0.0686911 34.8135 0.199052 35.1252C0.329413 35.4368 0.519945 35.7197 0.759726 35.9577C0.999506 36.1956 1.28384 36.384 1.59647 36.5119C1.90911 36.6399 2.2439 36.705 2.58171 36.7035H11.1412C11.3095 36.9661 11.4926 37.2191 11.6894 37.4611C13.9461 40.1828 17.8939 41.5662 23.4251 41.5662C27.2721 41.4671 31.1033 41.0364 34.8763 40.2788L35.9323 40.0937C39.4359 39.4911 41.3456 38.7265 42.5381 37.4692C43.1255 37.2961 43.6335 36.9224 43.9736 36.4131C44.0404 36.2784 44.079 36.1315 44.0872 35.9814C44.0954 35.8312 44.0728 35.681 44.021 35.5399C43.9314 35.3171 43.7821 35.1234 43.5896 34.98C43.7192 34.7992 43.8352 34.609 43.9366 34.4109C44.37 34.2298 44.7346 33.9154 44.9776 33.5133C45.046 33.3789 45.0855 33.2317 45.0935 33.081C45.1015 32.9304 45.0777 32.7798 45.0238 32.6389C44.9019 32.3498 44.687 32.1096 44.4131 31.9565C44.4027 31.7772 44.39 31.6025 44.3669 31.4302C44.4293 31.3342 44.4825 31.2382 44.5438 31.1421C45.3219 30.9356 45.9997 30.456 46.4535 29.7911C46.5363 29.6282 46.584 29.4497 46.5933 29.2672C46.6027 29.0846 46.5736 28.9022 46.5079 28.7316C46.3613 28.4359 46.15 28.1771 45.8897 27.9742C45.6294 27.7714 45.3267 27.6298 45.0042 27.5599C45.0197 27.476 45.06 27.3987 45.1199 27.3378C45.2644 27.0729 45.4669 26.7976 45.638 26.5004C46.5321 26.2407 47.3064 25.6748 47.8253 24.9018C47.9257 24.7013 47.9835 24.4822 47.995 24.2582C48.0066 24.0343 47.9716 23.8104 47.8924 23.6006C47.4402 22.3988 45.7618 22.0055 44.6491 21.8737ZM43.9701 26.468L40.0131 27.0463L43.8105 27.4639C44.0688 28.1627 44.1097 28.9234 43.9278 29.6459C43.746 30.3684 43.3498 31.019 42.7915 31.5123C42.7915 31.5123 42.8088 31.5528 42.8354 31.6187L39.7124 32.0293L43.0193 32.3474C43.1305 32.977 43.0141 33.6257 42.6908 34.1773L40.0894 34.9291L42.1969 34.8724C42.1969 35.2796 41.7932 37.0112 35.738 38.0533C28.8384 39.2412 9.48826 43.4064 12.4887 28.3881C15.4891 13.3697 31.6896 6.82869 34.9908 6.82869V21.2872C33.2014 21.5683 31.6156 21.876 30.2183 22.1848C28.673 21.9754 24.989 21.566 23.0654 22.1455L27.4504 22.8707C25.4961 23.341 23.5983 24.0204 21.7896 24.8972C25.779 23.8165 29.8365 23.005 33.9347 22.4682C38.0063 22.0217 42.4942 22.3097 43.3964 23.2594C44.9255 24.8822 44.4351 25.9486 43.9701 26.468Z" fill="#808080"/>
</g>
</g>
</g>
<defs>
<clipPath id="clip0_33_82">
<rect width="48" height="41.56" fill="white"/>
</clipPath>
<clipPath id="clip1_33_82">
<rect width="48" height="41.56" fill="white"/>
</clipPath>
<clipPath id="clip2_33_82">
<rect width="48" height="41.5723" fill="white" transform="translate(0 -0.00616455)"/>
</clipPath>
</defs>
</svg>
