<svg id="Layer_1" data-name="Layer 1" xmlns="http://www.w3.org/2000/svg" viewBox="0 0 1840.96 298.87"><polygon points="5.13 22.15 60.45 22.15 173.72 219.6 287.96 21.91 342.32 21.91 195.37 276.6 152.08 276.6 5.13 22.15" style="fill:#dedf1a"/><path d="M459.68,22.15H693.44V69.29H507.3v57.24H657.13v47.38H507.3V229.7H693.44v46.66H459.2S459.68,22.87,459.68,22.15Z" style="fill:#dedf1a"/><path d="M1012.11,190H1028s29-.88,41.74-27.66a51.51,51.51,0,0,0,4.92-22.24V72a49.83,49.83,0,0,0-11.27-31.86c-6.82-8.23-17.58-15.79-34.42-17.31l-208.76-.25V276.36h46.9V189.3h82.49l73.83,87.54h51.47V263.37ZM867.57,142.4V70l158.73-.24V142.4Z" style="fill:#dedf1a"/><path d="M1408.46,91.17h47.37V72.79a53,53,0,0,0-11.42-33.14,43.55,43.55,0,0,0-34.91-17H1246.84a44.36,44.36,0,0,0-36.36,19.21,49.86,49.86,0,0,0-8.86,28.62v55.83a46.31,46.31,0,0,0,12.25,31.63c6.39,6.84,16,13,30.57,15.27H1408V229H1248V208.06h-47.37v28.86a35.69,35.69,0,0,0,1,3.82,50.82,50.82,0,0,0,48.63,35.85H1407a49.52,49.52,0,0,0,28.92-9.12,45.89,45.89,0,0,0,17.36-24.3,53.12,53.12,0,0,0,2.29-15.74V175.79a51.59,51.59,0,0,0-13-34.52,44,44,0,0,0-31.26-15H1248.76V69.53H1408.7Z" style="fill:#dedf1a"/><polygon points="1582.22 22.15 1633.44 22.15 1708.84 111.98 1785.68 21.79 1835.83 21.79 1835.83 34.78 1740.23 150.21 1835.83 263.85 1835.59 276.6 1785.8 277.08 1709.2 187.38 1634.16 276.84 1582.22 276.84 1582.22 264.57 1677.82 149.85 1581.86 35.5 1582.22 22.15" style="fill:#dedf1a"/></svg>