<svg width="48" height="41" viewBox="0 0 48 41" fill="none" xmlns="http://www.w3.org/2000/svg">
<g clip-path="url(#clip0_33_78)">
<g clip-path="url(#clip1_33_78)">
<g clip-path="url(#clip2_33_78)">
<path d="M44.8368 18.1838C43.5928 16.9391 42.1982 15.8546 40.6854 14.9555C40.6256 14.9206 40.5747 14.8724 40.5366 14.8146C40.4984 14.7568 40.4742 14.691 40.4656 14.6223C40.3055 13.5977 40.2581 12.5585 40.3245 11.5235C40.3118 9.39631 40.3314 7.26912 40.3118 5.14887C40.3042 4.40211 40.0066 3.68755 39.4819 3.15615C38.9571 2.62475 38.2464 2.31812 37.4998 2.30105C37.4038 2.29411 37.3078 2.29411 37.2118 2.29411C31.8701 2.29411 26.5311 2.29643 21.1948 2.30105C20.6465 2.26691 20.1036 2.17344 19.5754 2.02229C17.6746 1.57471 15.7979 1.03035 13.9527 0.391325C13.4692 0.235169 12.9718 0.126439 12.4848 -0.00311279H12.1112C12.1339 0.0703557 12.165 0.140987 12.2037 0.207408C12.7115 0.838972 13.2263 1.47169 13.7398 2.10326L13.8844 2.29296H5.18481C4.47955 2.26925 3.78969 2.5025 3.24352 2.94931C2.69735 3.39612 2.33204 4.02608 2.21553 4.72205C2.1848 4.91324 2.17126 5.1068 2.17505 5.3004C2.17505 7.7133 2.17505 10.125 2.17505 12.5449C2.18506 12.6175 2.17014 12.6913 2.13274 12.7544C2.09534 12.8174 2.03767 12.8659 1.96915 12.8919C1.74208 13.0029 1.52328 13.1301 1.31445 13.2724C1.58859 13.2597 1.8662 13.2389 2.17157 13.2181V13.4286C2.17157 14.3389 2.17157 15.2504 2.17157 16.1538C2.17715 16.2131 2.16563 16.2727 2.13836 16.3256C2.1111 16.3785 2.06923 16.4224 2.01774 16.4522C1.6233 16.7241 1.2358 16.989 0.861025 17.2677C0.566064 17.4852 0.288457 17.7096 0.00390625 17.934V18.015C0.651664 18.1445 1.29942 18.2798 1.94718 18.4025C2.12878 18.436 2.17852 18.5181 2.17852 18.7009C2.17852 22.1194 2.17852 25.5355 2.17852 28.9493C2.17852 31.6745 2.17852 34.4044 2.17852 37.1389C2.1649 37.8276 2.399 38.4984 2.83822 39.0291C3.27744 39.5598 3.89259 39.9152 4.57175 40.0306C4.76833 40.0691 4.96832 40.0873 5.16861 40.085H37.3252C37.712 40.0996 38.0977 40.0361 38.4594 39.8983C38.8211 39.7605 39.1513 39.5511 39.4303 39.2828C39.7093 39.0145 39.9314 38.6927 40.0832 38.3367C40.2351 37.9806 40.3136 37.5976 40.3141 37.2106C40.3419 35.5461 40.321 33.8873 40.321 32.2298V26.046C40.9802 26.1518 41.581 26.4864 42.0179 26.991C42.7351 27.8262 43.4407 28.6694 44.1509 29.5196C44.5106 29.9545 44.8634 30.3964 45.2278 30.8382C45.3331 30.9609 45.4591 31.0627 45.5841 31.1853C45.6211 31.1378 45.6454 31.124 45.6558 31.0974C46.2341 29.8539 46.846 28.637 47.3978 27.3727C47.6388 26.7971 47.8202 26.1983 47.9391 25.5856C48.0489 24.814 47.9893 24.0277 47.7645 23.2815C47.2751 21.3457 46.2622 19.582 44.8368 18.1838ZM46.4828 26.5122C46.3278 27.5362 46.0428 28.5363 45.6349 29.4884C45.5667 29.3392 45.5019 29.1899 45.4268 29.0465C44.8852 28.0452 44.2517 27.0965 43.5344 26.2126C42.8805 25.4238 42.0729 24.7764 41.1608 24.3098C39.3609 23.3454 37.4864 22.5273 35.5554 21.8633C35.5187 21.848 35.4779 21.8456 35.4397 21.8564C36.6496 22.5088 37.8607 23.1612 39.0729 23.8135C39.0625 23.8332 39.0533 23.861 39.0429 23.8818C38.3604 23.699 37.6675 23.5348 36.992 23.3243C35.9325 23.0119 36.2552 23.1612 33.8238 22.4336C29.419 21.2445 28.7158 22.0322 28.7158 22.0322C31.3077 22.1955 33.8121 23.0328 35.9811 24.4613C35.8654 24.7459 35.7682 25.0258 35.6653 25.3034C35.508 25.7244 35.353 26.1455 35.1852 26.5665C35.0874 26.8163 35.0911 27.0945 35.1956 27.3415C36.0701 29.604 36.9816 31.8677 37.8491 34.1314C37.8965 34.2581 37.9253 34.3909 37.9347 34.5258V38.4193C37.9342 38.5004 37.9206 38.5809 37.8943 38.6576C37.8943 38.6646 37.8838 38.6715 37.8804 38.6784C37.6972 38.8775 37.47 39.0309 37.2169 39.1265C36.9639 39.2221 36.692 39.2572 36.4229 39.229C29.3126 39.2082 22.2023 39.2221 15.0955 39.2221C11.6979 39.2221 8.30137 39.2198 4.90604 39.2151C4.73381 39.2174 4.56168 39.2058 4.39131 39.1804C4.01501 39.1287 3.67156 38.9384 3.42812 38.6468C3.18468 38.3552 3.05875 37.9833 3.07497 37.6038C3.05762 37.2233 3.07497 36.8427 3.07497 36.4552C3.07841 36.4029 3.09342 36.3519 3.11892 36.306C3.96046 34.6105 4.70353 32.868 5.34443 31.0869C5.39533 30.9516 5.44738 30.8221 5.48902 30.6798C4.86003 31.757 4.05858 32.7237 3.11661 33.5415L3.04143 33.5207C3.0796 32.9631 3.08653 32.3998 3.16519 31.8423C3.47403 29.6445 3.80254 27.4468 4.12526 25.2571C4.12019 25.2297 4.11324 25.2026 4.10444 25.1762C3.769 26.2773 3.43933 27.3438 3.11314 28.4045H3.07497V28.0911C3.07497 26.046 3.07497 24.0067 3.07497 21.9605C3.07444 21.8333 3.10251 21.7076 3.1571 21.5927C3.61978 20.5736 4.10328 19.5603 4.57638 18.5482C4.61187 18.4941 4.63333 18.432 4.63882 18.3675C4.64432 18.303 4.63367 18.2382 4.60785 18.1789C4.58202 18.1195 4.54184 18.0676 4.49091 18.0276C4.43998 17.9877 4.3799 17.9611 4.31612 17.9502C3.83608 17.8484 3.35605 17.7663 2.87601 17.6922C2.56717 17.6379 2.25833 17.6101 1.89512 17.5696C2.01079 17.4944 2.08714 17.4482 2.16232 17.3927C4.5565 15.8212 6.72492 13.9303 8.60751 11.7722C8.70352 11.6635 8.88512 11.5547 8.78564 11.3708C8.68617 11.1869 8.49068 11.2285 8.33684 11.2621C7.7261 11.3916 7.11806 11.5343 6.51271 11.6901C6.22122 11.7583 5.93435 11.8601 5.63823 11.9214L11.9886 6.57972L6.52891 2.83892C6.53585 2.8181 6.54278 2.80538 6.54972 2.78456C10.0707 3.4034 13.5918 4.01414 17.1637 4.6353C16.066 3.46008 15.0076 2.32187 13.9133 1.15591C14.0024 1.17673 14.051 1.18367 14.0915 1.1964C17.7085 2.39243 21.3186 3.59541 24.9391 4.77063C28.3989 5.84799 31.6817 7.42797 34.6821 9.45993C35.9043 10.269 36.9744 11.287 37.8434 12.4674C38.2784 13.0529 38.5869 13.7226 38.7491 14.4338C38.7528 14.4684 38.7489 14.5034 38.7377 14.5364C38.7266 14.5693 38.7083 14.5995 38.6843 14.6246C38.4035 14.7881 38.1758 15.0291 38.0284 15.3187C37.7468 15.8295 37.6092 16.4072 37.6305 16.9901C37.6444 17.3163 37.5218 17.4863 37.1852 17.4863C36.9104 17.4887 36.6364 17.4565 36.3697 17.3903C36.0227 17.3024 35.6757 17.1729 35.3287 17.0572C35.2714 17.0422 35.215 17.0241 35.1598 17.0028C35.8825 17.5354 36.7257 17.8811 37.6143 18.0092C37.8115 18.0444 38.0138 18.0372 38.2079 17.9879C38.402 17.9386 38.5834 17.8485 38.7398 17.7235C38.7927 17.6867 38.8307 17.6322 38.8471 17.5699C38.8634 17.5075 38.8569 17.4414 38.8289 17.3834C38.75 17.1877 38.7346 16.9721 38.7851 16.7672C38.8355 16.5623 38.9492 16.3784 39.11 16.2417C39.131 16.2142 39.1574 16.1911 39.1874 16.1737C39.2175 16.1564 39.2507 16.1452 39.2851 16.1408C39.3196 16.1364 39.3545 16.1389 39.388 16.148C39.4214 16.1572 39.4528 16.1729 39.4801 16.1943C41.0287 17.0985 42.4569 18.1944 43.731 19.4562C44.4733 20.1896 45.126 21.0085 45.6754 21.8957C46.5344 23.2698 46.8244 24.9244 46.484 26.5087L46.4828 26.5122Z" fill="#808080"/>
</g>
</g>
</g>
<defs>
<clipPath id="clip0_33_78">
<rect width="48" height="40.09" fill="white"/>
</clipPath>
<clipPath id="clip1_33_78">
<rect width="48" height="40.09" fill="white"/>
</clipPath>
<clipPath id="clip2_33_78">
<rect width="48" height="40.0962" fill="white" transform="translate(0 -0.00311279)"/>
</clipPath>
</defs>
</svg>
